<svg width="31" height="33" viewBox="0 0 31 33" fill="none" xmlns="http://www.w3.org/2000/svg">
<path d="M17.3497 20.13L17.4699 20.2373L26.4185 29.5872C25.7574 30.0215 24.9957 30.2511 24.2188 30.25H9.36466C8.58793 30.2515 7.8262 30.0224 7.16496 29.5886L16.1136 20.2373L16.2208 20.1396C16.3844 20.0126 16.5813 19.9434 16.7838 19.9417C16.9863 19.9399 17.1842 20.0058 17.3497 20.13ZM24.2188 5.5C24.7701 5.5 25.316 5.61559 25.8253 5.84016C26.3346 6.06474 26.7974 6.3939 27.1872 6.80887C27.577 7.22383 27.8862 7.71646 28.0972 8.25863C28.3082 8.80081 28.4167 9.38191 28.4167 9.96875V25.7812C28.4167 26.6434 28.1868 27.4491 27.7903 28.1325L18.8274 18.7646L18.6621 18.6051C18.1399 18.1377 17.4799 17.8807 16.7977 17.8792C16.1154 17.8777 15.4544 18.1318 14.9305 18.5969L14.7561 18.766L5.79321 28.1311C5.38248 27.4254 5.16548 26.6114 5.16675 25.7812V17.1902C6.7027 17.8726 8.39452 18.0536 10.0273 17.7103C11.6601 17.367 13.1602 16.5148 14.3371 15.262C15.514 14.0092 16.3145 12.4123 16.637 10.6742C16.9596 8.93602 16.7895 7.13505 16.1485 5.5H24.2188ZM8.39591 1.375C9.32885 1.375 10.2526 1.57061 11.1146 1.95066C11.9765 2.33071 12.7596 2.88776 13.4193 3.59C14.079 4.29225 14.6023 5.12593 14.9593 6.04346C15.3163 6.96098 15.5001 7.94438 15.5001 8.9375C15.5001 9.93062 15.3163 10.914 14.9593 11.8315C14.6023 12.7491 14.079 13.5828 13.4193 14.285C12.7596 14.9872 11.9765 15.5443 11.1146 15.9243C10.2526 16.3044 9.32885 16.5 8.39591 16.5C6.51177 16.5 4.7048 15.7032 3.37251 14.285C2.04022 12.8668 1.29175 10.9432 1.29175 8.9375C1.29175 6.9318 2.04022 5.00825 3.37251 3.59001C4.7048 2.17176 6.51177 1.375 8.39591 1.375ZM21.6381 9.625C20.8666 9.625 20.1267 9.95124 19.5812 10.5319C19.0357 11.1126 18.7292 11.9003 18.7292 12.7215C18.7292 13.5427 19.0357 14.3303 19.5812 14.9111C20.1267 15.4918 20.8666 15.818 21.6381 15.818C22.4096 15.818 23.1494 15.4918 23.6949 14.9111C24.2404 14.3303 24.5469 13.5427 24.5469 12.7215C24.5469 11.9003 24.2404 11.1126 23.6949 10.5319C23.1494 9.95124 22.4096 9.625 21.6381 9.625ZM21.6381 11.6875C21.8957 11.6875 22.1428 11.7964 22.3249 11.9904C22.5071 12.1843 22.6094 12.4473 22.6094 12.7215C22.6094 12.9957 22.5071 13.2587 22.3249 13.4526C22.1428 13.6466 21.8957 13.7555 21.6381 13.7555C21.3805 13.7555 21.1334 13.6466 20.9512 13.4526C20.7691 13.2587 20.6667 12.9957 20.6667 12.7215C20.6667 12.4473 20.7691 12.1843 20.9512 11.9904C21.1334 11.7964 21.3805 11.6875 21.6381 11.6875ZM8.39591 4.125L8.27966 4.13462C8.15062 4.15972 8.03182 4.22605 7.93906 4.3248C7.8463 4.42354 7.78399 4.55001 7.76041 4.68737L7.75008 4.8125V8.25H4.51833L4.40208 8.261C4.27304 8.2861 4.15423 8.35243 4.06148 8.45117C3.96872 8.54991 3.90641 8.67638 3.88283 8.81375L3.8725 8.9375L3.88283 9.06125C3.90641 9.19862 3.96872 9.32509 4.06148 9.42383C4.15423 9.52257 4.27304 9.5889 4.40208 9.614L4.51833 9.625H7.75008V13.0666L7.76041 13.1904C7.78399 13.3277 7.8463 13.4542 7.93906 13.553C8.03182 13.6517 8.15062 13.718 8.27966 13.7431L8.39591 13.7555L8.51216 13.7431C8.64121 13.718 8.76001 13.6517 8.85277 13.553C8.94553 13.4542 9.00784 13.3277 9.03141 13.1904L9.04175 13.0666V9.625H12.2774L12.3936 9.614C12.5227 9.5889 12.6415 9.52257 12.7342 9.42383C12.827 9.32509 12.8893 9.19862 12.9129 9.06125L12.9232 8.9375L12.9129 8.81375C12.8892 8.67619 12.8267 8.54959 12.7337 8.45083C12.6407 8.35206 12.5216 8.28584 12.3923 8.261L12.2761 8.25H9.04175V4.8125L9.03141 4.68875C9.00808 4.55113 8.94587 4.42436 8.85309 4.32535C8.76032 4.22634 8.64139 4.15981 8.51216 4.13462L8.39591 4.125Z" fill="#004583"/>
</svg>
