<svg width="31" height="31" viewBox="0 0 31 31" fill="none" xmlns="http://www.w3.org/2000/svg">
<path d="M20.6667 20.9896C20.6667 22.1029 20.2245 23.1707 19.4372 23.958C18.6499 24.7452 17.5822 25.1875 16.4688 25.1875H16.3875C16.9638 23.4077 16.9293 21.4865 16.2893 19.7286C15.6494 17.9707 14.4406 16.4769 12.8549 15.4843C11.2692 14.4916 9.39744 14.057 7.53659 14.2494C5.67575 14.4418 3.93247 15.2502 2.58341 16.5463V10.0104C2.58341 8.89706 3.02569 7.8293 3.81296 7.04204C4.60022 6.25478 5.66797 5.8125 6.78133 5.8125H16.4688C17.5822 5.8125 18.6499 6.25478 19.4372 7.04204C20.2245 7.8293 20.6667 8.89706 20.6667 10.0104V20.9896ZM28.1093 7.61179C28.3079 7.84546 28.4169 8.14215 28.4167 8.44879V22.5512C28.4168 22.7979 28.3463 23.0394 28.2135 23.2472C28.0806 23.4551 27.8911 23.6206 27.6672 23.7241C27.4433 23.8276 27.1944 23.8649 26.9501 23.8314C26.7057 23.798 26.476 23.6953 26.2881 23.5355L21.9584 19.8529V11.1445L26.2881 7.46454C26.4173 7.35458 26.5669 7.27116 26.7284 7.21905C26.8899 7.16694 27.0601 7.14715 27.2292 7.16083C27.3983 7.1745 27.5631 7.22137 27.7141 7.29875C27.8652 7.37612 27.9994 7.4825 28.1093 7.61179ZM15.5001 22.6042C15.5001 21.6712 15.3163 20.7474 14.9593 19.8855C14.6023 19.0236 14.079 18.2404 13.4193 17.5808C12.7596 16.9211 11.9765 16.3978 11.1146 16.0408C10.2526 15.6838 9.32885 15.5 8.39592 15.5C7.46298 15.5 6.53919 15.6838 5.67727 16.0408C4.81535 16.3978 4.03219 16.9211 3.37251 17.5808C2.71283 18.2404 2.18954 19.0236 1.83252 19.8855C1.4755 20.7474 1.29175 21.6712 1.29175 22.6042C1.29175 24.4883 2.04022 26.2953 3.37251 27.6276C4.7048 28.9599 6.51177 29.7083 8.39592 29.7083C10.2801 29.7083 12.087 28.9599 13.4193 27.6276C14.7516 26.2953 15.5001 24.4883 15.5001 22.6042ZM9.04175 23.25L9.04304 26.483C9.04304 26.6543 8.975 26.8186 8.85388 26.9397C8.73276 27.0608 8.56849 27.1289 8.39721 27.1289C8.22592 27.1289 8.06165 27.0608 7.94053 26.9397C7.81942 26.8186 7.75137 26.6543 7.75137 26.483V23.25H4.51575C4.34446 23.25 4.18019 23.182 4.05907 23.0608C3.93796 22.9397 3.86992 22.7755 3.86992 22.6042C3.86992 22.4329 3.93796 22.2686 4.05907 22.1475C4.18019 22.0264 4.34446 21.9583 4.51575 21.9583H7.75008V18.7292C7.75008 18.5579 7.81812 18.3936 7.93924 18.2725C8.06036 18.1514 8.22463 18.0833 8.39592 18.0833C8.5672 18.0833 8.73147 18.1514 8.85259 18.2725C8.97371 18.3936 9.04175 18.5579 9.04175 18.7292V21.9583H12.267C12.4383 21.9583 12.6026 22.0264 12.7237 22.1475C12.8448 22.2686 12.9129 22.4329 12.9129 22.6042C12.9129 22.7755 12.8448 22.9397 12.7237 23.0608C12.6026 23.182 12.4383 23.25 12.267 23.25H9.04175Z" fill="#004583"/>
</svg>
