<svg width="190" height="50" viewBox="0 0 190 50" fill="none" xmlns="http://www.w3.org/2000/svg">
<path d="M56 40.4C54.5333 40.4 53.08 40.2667 51.64 40C50.2267 39.76 48.9733 39.44 47.88 39.04C46.7867 38.64 46 38.24 45.52 37.84V29.48C46.5333 30.04 47.6667 30.5467 48.92 31C50.1733 31.4533 51.44 31.8133 52.72 32.08C54.0267 32.32 55.2667 32.44 56.44 32.44C58.0667 32.44 58.88 32.0667 58.88 31.32C58.88 30.9467 58.7067 30.64 58.36 30.4C58.04 30.1333 57.4667 29.8533 56.64 29.56C55.8133 29.2667 54.64 28.8933 53.12 28.44C51.36 27.88 49.8533 27.2933 48.6 26.68C47.3733 26.0667 46.4267 25.28 45.76 24.32C45.12 23.36 44.8 22.08 44.8 20.48C44.8 17.7067 45.9067 15.48 48.12 13.8C50.3333 12.12 53.5733 11.28 57.84 11.28C58.6933 11.28 59.6 11.32 60.56 11.4C61.5467 11.4533 62.3333 11.5333 62.92 11.64L67.84 14.96L65.84 21.04L55.6 18.44C54.5333 18.44 54 18.8 54 19.52C54 20.08 54.3333 20.5467 55 20.92C55.6933 21.2667 56.9333 21.7467 58.72 22.36C61.0933 23.16 62.9733 23.9867 64.36 24.84C65.7733 25.6667 66.7867 26.6133 67.4 27.68C68.0133 28.7467 68.32 30.0133 68.32 31.48C68.32 34.1467 67.2933 36.3067 65.24 37.96C63.1867 39.5867 60.1067 40.4 56 40.4ZM72.3922 49.72V27.92L71.5922 23.52L72.8322 21.08H80.3922V22.8L80.7922 23C80.7922 23 80.9655 22.8 81.3122 22.4C81.6589 22 82.1789 21.6133 82.8722 21.24C83.5922 20.84 84.5122 20.64 85.6322 20.64C88.0055 20.64 89.8589 21.4 91.1922 22.92C92.5522 24.44 93.2322 26.84 93.2322 30.12C93.2322 32.5733 92.8855 34.56 92.1922 36.08C91.5255 37.5733 90.6189 38.6533 89.4722 39.32C88.3255 39.9867 87.0455 40.32 85.6322 40.32C83.9789 40.32 82.8189 40.1733 82.1522 39.88C81.5122 39.56 81.1922 39.4 81.1922 39.4V49.72H72.3922ZM82.2322 33.56C82.8722 33.56 83.3922 33.32 83.7922 32.84C84.2189 32.36 84.4322 31.5733 84.4322 30.48C84.4322 29.5467 84.2055 28.84 83.7522 28.36C83.3255 27.8533 82.6055 27.6 81.5922 27.6L81.1922 28V33.04C81.1922 33.04 81.2722 33.1333 81.4322 33.32C81.6189 33.48 81.8855 33.56 82.2322 33.56ZM101.216 40.4C99.429 40.4 97.9756 39.9867 96.8556 39.16C95.7623 38.3067 95.2156 36.8267 95.2156 34.72C95.2156 32.7733 95.8556 31.3067 97.1356 30.32C98.4423 29.3067 100.202 28.8 102.416 28.8C103.616 28.8 104.576 28.92 105.296 29.16C106.016 29.3733 106.562 29.5867 106.936 29.8L107.216 29.6C107.216 28.7733 107.069 28.16 106.776 27.76C106.482 27.3333 105.776 27.12 104.656 27.12C103.669 27.12 102.656 27.2267 101.616 27.44C100.602 27.6267 99.6423 27.88 98.7356 28.2C97.829 28.4933 97.0556 28.8133 96.4156 29.16V21.96C96.8423 21.8267 97.5223 21.6667 98.4556 21.48C99.389 21.2933 100.509 21.1333 101.816 21C103.122 20.84 104.522 20.76 106.016 20.76C108.522 20.76 110.509 21.0667 111.976 21.68C113.442 22.2667 114.482 23.1333 115.096 24.28C115.736 25.4 116.056 26.7467 116.056 28.32V33.64L116.856 37.68L116.056 40.04H107.616V38.08L107.216 37.88C106.789 38.4933 106.056 39.0667 105.016 39.6C104.002 40.1333 102.736 40.4 101.216 40.4ZM105.736 35.16C106.136 35.16 106.469 35.0933 106.736 34.96C107.002 34.8267 107.162 34.7467 107.216 34.72V33.84C107.216 33.44 107.096 33.0933 106.856 32.8C106.616 32.5067 106.256 32.36 105.776 32.36C105.349 32.36 104.949 32.48 104.576 32.72C104.202 32.9333 104.016 33.32 104.016 33.88C104.016 34.7333 104.589 35.16 105.736 35.16ZM129.205 40.4C127.231 40.4 125.431 40.0933 123.805 39.48C122.205 38.8667 120.938 37.84 120.005 36.4C119.071 34.96 118.605 33.0133 118.605 30.56C118.605 28.6667 118.925 27.0933 119.565 25.84C120.205 24.5867 121.045 23.5867 122.085 22.84C123.125 22.0667 124.258 21.52 125.485 21.2C126.738 20.88 127.978 20.72 129.205 20.72C130.671 20.72 131.911 20.7867 132.925 20.92C133.938 21.0267 134.658 21.1067 135.085 21.16L138.205 24.68L134.605 29.84L130.005 27.52C129.418 27.52 128.898 27.7333 128.445 28.16C127.991 28.5867 127.765 29.3867 127.765 30.56C127.765 31.7867 128.031 32.6 128.565 33C129.125 33.4 129.871 33.6 130.805 33.6C132.458 33.6 133.885 33.3867 135.085 32.96C136.285 32.5067 137.178 32.1467 137.765 31.88V38.84C136.751 39.3467 135.471 39.7333 133.925 40C132.405 40.2667 130.831 40.4 129.205 40.4ZM151.597 40.4C149.544 40.4 147.677 40.1067 145.997 39.52C144.344 38.9067 143.024 37.8933 142.037 36.48C141.077 35.04 140.597 33.0667 140.597 30.56C140.597 28.8 140.89 27.2933 141.477 26.04C142.09 24.7867 142.904 23.7733 143.917 23C144.93 22.2 146.064 21.6267 147.317 21.28C148.57 20.9067 149.864 20.72 151.197 20.72C152.877 20.72 154.277 20.8267 155.397 21.04C156.544 21.2533 157.464 21.4933 158.157 21.76C158.85 22.0267 159.384 22.2667 159.757 22.48L161.757 28.84L160.957 31.32H149.357C149.464 32.0667 149.85 32.7067 150.517 33.24C151.184 33.7467 152.344 34 153.997 34C155.57 34 156.877 33.8267 157.917 33.48C158.957 33.1333 159.704 32.8667 160.157 32.68V38.84C159.624 39.1333 158.89 39.4 157.957 39.64C157.024 39.88 155.997 40.0667 154.877 40.2C153.784 40.3333 152.69 40.4 151.597 40.4ZM149.237 28.72L153.317 27.96L152.957 26.68C152.584 26.4667 152.13 26.36 151.597 26.36C150.717 26.36 150.09 26.6 149.717 27.08C149.37 27.56 149.21 28.1067 149.237 28.72Z" fill="#004583"/>
<path fill-rule="evenodd" clip-rule="evenodd" d="M29.6243 22.6852C29.6243 22.6852 33.1154 27.9715 36.5527 29.6566C39.2187 30.9519 36.2597 38.7726 34.8354 42.1427C34.4296 43.0941 33.8759 43.0672 33.2981 42.2556C32.2016 40.7156 30.0194 37.539 26.574 37.539H13.7976C10.3496 37.539 8.1673 40.7156 7.07349 42.2556C6.49568 43.0672 5.93668 43.0941 5.53624 42.1427C4.11187 38.7699 1.15293 30.9519 3.81624 29.6566C7.25624 27.9715 10.7473 22.6852 10.7473 22.6852H29.6243Z" fill="#004583"/>
<path fill-rule="evenodd" clip-rule="evenodd" d="M30.0785 24.3541C29.1056 16.0336 25.8 2.84873 21.7043 0.206915C21.2236 0.148205 20.7399 0.117694 20.2557 0.11554C19.7612 0.11554 19.2828 0.150477 18.8018 0.206915C14.706 2.84873 11.3977 16.0363 10.4275 24.3541C10.2394 25.9774 10.1373 27.4259 10.1373 28.56C10.1373 32.6585 11.4515 35.6685 13.5235 37.582H26.9879C29.06 35.6658 30.3741 32.6585 30.3741 28.56C30.3529 27.1537 30.2542 25.7496 30.0785 24.3541ZM20.1563 10.75C20.6858 10.7502 21.2102 10.8546 21.6994 11.0575C22.1886 11.2603 22.633 11.5575 23.0073 11.932C23.3817 12.3066 23.6786 12.7513 23.8811 13.2406C24.0836 13.7299 24.1877 14.2543 24.1875 14.7839C24.1873 15.3135 24.0829 15.8378 23.88 16.327C23.6772 16.8162 23.38 17.2607 23.0054 17.635C22.6309 18.0093 22.1862 18.3062 21.6969 18.5087C21.2076 18.7112 20.6831 18.8153 20.1536 18.8152C19.0841 18.8148 18.0585 18.3896 17.3025 17.6331C16.5465 16.8766 16.122 15.8507 16.1223 14.7812C16.1227 13.7117 16.5479 12.6862 17.3044 11.9301C18.0609 11.1741 19.0868 10.7496 20.1563 10.75Z" fill="#004583"/>
</svg>
