<svg width="39" height="39" viewBox="0 0 39 39" fill="none" xmlns="http://www.w3.org/2000/svg">
<g clipPath="url(#clip0)">
<path d="M10.9688 15.8438C9.62056 15.8438 8.5313 16.933 8.5313 18.2812C8.5313 19.6295 9.62056 20.7188 10.9688 20.7188C12.317 20.7188 13.4063 19.6295 13.4063 18.2812C13.4063 16.933 12.317 15.8438 10.9688 15.8438ZM19.5001 15.8438C18.1518 15.8438 17.0626 16.933 17.0626 18.2812C17.0626 19.6295 18.1518 20.7188 19.5001 20.7188C20.8483 20.7188 21.9376 19.6295 21.9376 18.2812C21.9376 16.933 20.8483 15.8438 19.5001 15.8438ZM28.0313 15.8438C26.6831 15.8438 25.5938 16.933 25.5938 18.2812C25.5938 19.6295 26.6831 20.7188 28.0313 20.7188C29.3795 20.7188 30.4688 19.6295 30.4688 18.2812C30.4688 16.933 29.3795 15.8438 28.0313 15.8438ZM19.5001 2.4375C8.72935 2.4375 5.05075e-05 9.5291 5.05075e-05 18.2812C5.05075e-05 21.907 1.51587 25.2281 4.02954 27.9018C2.89458 30.9029 0.533254 33.4471 0.495168 33.4775C-0.00756668 34.0107 -0.144676 34.7877 0.144777 35.458C0.43423 36.1283 1.09693 36.5625 1.82818 36.5625C6.51275 36.5625 10.2071 34.6049 12.4237 33.0357C14.6251 33.7289 17.0016 34.125 19.5001 34.125C30.2708 34.125 39 27.0334 39 18.2812C39 9.5291 30.2708 2.4375 19.5001 2.4375ZM19.5001 30.4688C17.4663 30.4688 15.4553 30.1564 13.5282 29.5471L11.7991 28.9986L10.3137 30.0498C9.22446 30.8191 7.7315 31.6799 5.93384 32.2588C6.48989 31.3371 7.03071 30.3012 7.44966 29.1967L8.25708 27.0563L6.68794 25.3957C5.30923 23.9256 3.6563 21.4957 3.6563 18.2812C3.6563 11.5629 10.7631 6.09375 19.5001 6.09375C28.237 6.09375 35.3438 11.5629 35.3438 18.2812C35.3438 24.9996 28.237 30.4688 19.5001 30.4688Z" fill="black"/>
</g>
<defs>
<clipPath id="clip0">
<rect width="39" height="39" fill="white"/>
</clipPath>
</defs>
</svg>
