<svg width="376" height="445" viewBox="0 0 376 445" fill="none" xmlns="http://www.w3.org/2000/svg">
<g clip-path="url(#clip0_97:2)">
<path d="M302.342 105.71H299.899V38.7526C299.899 28.4748 295.814 18.6179 288.541 11.3504C281.268 4.08286 271.405 5.05508e-09 261.12 5.05508e-09H119.162C114.069 -8.21901e-05 109.026 1.0022 104.321 2.94963C99.6164 4.89706 95.3413 7.75148 91.7403 11.3499C88.1392 14.9484 85.2827 19.2204 83.3337 23.9221C81.3848 28.6237 80.3817 33.6629 80.3816 38.752V406.083C80.3816 416.361 84.4673 426.218 91.7398 433.485C99.0124 440.753 108.876 444.836 119.161 444.836H261.118C271.403 444.836 281.267 440.753 288.539 433.485C295.812 426.218 299.897 416.361 299.897 406.083V153.371H302.34L302.342 105.71Z" fill="#3F3D56"/>
<path d="M291.945 36.1571V408.678C291.944 416.47 288.846 423.943 283.333 429.454C277.819 434.965 270.342 438.062 262.544 438.065H117.673C109.872 438.066 102.39 434.971 96.8727 429.46C91.3554 423.949 88.2545 416.473 88.2522 408.678V36.1571C88.2545 28.3618 91.3552 20.8866 96.8723 15.3757C102.389 9.86476 109.871 6.76939 117.672 6.77039H135.245C134.382 8.89093 134.054 11.1908 134.289 13.4679C134.524 15.745 135.315 17.9296 136.592 19.8296C137.87 21.7297 139.595 23.287 141.616 24.3648C143.637 25.4425 145.892 26.0077 148.183 26.0106H230.776C233.067 26.0077 235.322 25.4425 237.343 24.3648C239.364 23.287 241.089 21.7297 242.366 19.8296C243.644 17.9296 244.435 15.745 244.67 13.4679C244.905 11.1908 244.576 8.89093 243.714 6.77039H262.538C270.336 6.77171 277.814 9.86746 283.328 15.377C288.843 20.8866 291.942 28.359 291.945 36.1514V36.1571Z" fill="white"/>
<path d="M190.072 185.701C223.475 185.701 250.554 158.641 250.554 125.261C250.554 91.8808 223.475 64.8208 190.072 64.8208C156.669 64.8208 129.59 91.8808 129.59 125.261C129.59 158.641 156.669 185.701 190.072 185.701Z" fill="#6C63FF"/>
<path d="M256.035 250.733H127.3C126.668 250.733 126.062 250.482 125.615 250.035C125.168 249.588 124.917 248.983 124.916 248.351V216.44C124.917 215.809 125.169 215.203 125.615 214.757C126.062 214.31 126.668 214.059 127.3 214.058H256.035C256.667 214.059 257.272 214.31 257.719 214.757C258.166 215.203 258.418 215.809 258.418 216.44V248.352C258.418 248.983 258.166 249.589 257.719 250.035C257.272 250.482 256.667 250.733 256.035 250.734V250.733ZM127.3 215.011C126.921 215.011 126.557 215.162 126.289 215.43C126.021 215.698 125.87 216.061 125.87 216.44V248.352C125.87 248.731 126.021 249.094 126.289 249.362C126.557 249.63 126.921 249.781 127.3 249.781H256.035C256.414 249.781 256.778 249.63 257.046 249.362C257.314 249.094 257.465 248.731 257.465 248.352V216.44C257.465 216.061 257.314 215.698 257.046 215.43C256.778 215.162 256.414 215.011 256.035 215.011H127.3Z" fill="#E6E6E6"/>
<path d="M167.112 225.55C166.67 225.55 166.245 225.726 165.932 226.039C165.619 226.351 165.444 226.776 165.444 227.218C165.444 227.66 165.619 228.084 165.932 228.397C166.245 228.71 166.67 228.886 167.112 228.886H245.783C246.225 228.903 246.656 228.743 246.981 228.443C247.306 228.142 247.498 227.725 247.515 227.283C247.532 226.841 247.372 226.41 247.071 226.085C246.771 225.761 246.353 225.569 245.911 225.552C245.886 225.551 245.862 225.551 245.837 225.551H167.112L167.112 225.55Z" fill="#E6E6E6"/>
<path d="M167.112 235.555C166.67 235.555 166.245 235.73 165.932 236.043C165.619 236.356 165.444 236.78 165.444 237.222C165.444 237.665 165.619 238.089 165.932 238.402C166.245 238.714 166.67 238.89 167.112 238.89H245.783C246.225 238.907 246.656 238.748 246.981 238.447C247.306 238.146 247.498 237.729 247.515 237.287C247.532 236.845 247.372 236.414 247.071 236.09C246.771 235.765 246.353 235.573 245.911 235.556C245.886 235.555 245.862 235.555 245.837 235.555H167.112L167.112 235.555Z" fill="#E6E6E6"/>
<path d="M256.035 303.922H127.3C126.668 303.922 126.062 303.67 125.615 303.224C125.168 302.777 124.917 302.172 124.916 301.54V269.629C124.917 268.998 125.169 268.392 125.615 267.946C126.062 267.499 126.668 267.248 127.3 267.247H256.035C256.667 267.248 257.272 267.499 257.719 267.946C258.166 268.392 258.418 268.998 258.418 269.629V301.541C258.417 302.172 258.166 302.778 257.719 303.224C257.272 303.67 256.666 303.922 256.035 303.922V303.922ZM127.3 268.2C126.921 268.2 126.557 268.351 126.289 268.619C126.021 268.887 125.87 269.25 125.87 269.629V301.541C125.87 301.92 126.021 302.283 126.289 302.551C126.557 302.819 126.921 302.97 127.3 302.97H256.035C256.414 302.97 256.778 302.819 257.046 302.551C257.314 302.283 257.465 301.92 257.465 301.541V269.629C257.465 269.25 257.314 268.887 257.046 268.619C256.778 268.351 256.414 268.2 256.035 268.2H127.3Z" fill="#E6E6E6"/>
<path d="M167.112 278.912C166.67 278.912 166.245 279.088 165.932 279.4C165.619 279.713 165.444 280.137 165.444 280.58C165.444 281.022 165.619 281.446 165.932 281.759C166.245 282.072 166.67 282.247 167.112 282.247H245.783C246.219 282.245 246.637 282.072 246.947 281.765C247.258 281.459 247.435 281.043 247.442 280.607C247.45 280.171 247.286 279.749 246.986 279.433C246.686 279.116 246.273 278.929 245.837 278.913H167.112V278.912Z" fill="#E6E6E6"/>
<path d="M167.112 288.919C166.67 288.919 166.245 289.095 165.932 289.407C165.619 289.72 165.444 290.144 165.444 290.587C165.444 291.029 165.619 291.453 165.932 291.766C166.245 292.079 166.67 292.254 167.112 292.254H245.783C246.219 292.252 246.637 292.079 246.947 291.772C247.258 291.465 247.435 291.05 247.442 290.614C247.45 290.178 247.286 289.756 246.986 289.44C246.686 289.123 246.273 288.936 245.837 288.92H167.112V288.919Z" fill="#E6E6E6"/>
<path d="M256.035 357.285H127.3C126.668 357.285 126.062 357.034 125.615 356.587C125.168 356.14 124.917 355.535 124.916 354.903V322.992C124.917 322.361 125.169 321.755 125.615 321.309C126.062 320.862 126.668 320.611 127.3 320.61H256.035C256.667 320.611 257.272 320.862 257.719 321.309C258.166 321.755 258.418 322.361 258.418 322.992V354.904C258.418 355.535 258.166 356.141 257.719 356.587C257.272 357.034 256.667 357.285 256.035 357.286V357.285ZM127.3 321.563C126.921 321.563 126.557 321.714 126.289 321.982C126.021 322.25 125.87 322.613 125.87 322.992V354.904C125.87 355.283 126.021 355.646 126.289 355.914C126.557 356.182 126.921 356.333 127.3 356.333H256.035C256.414 356.333 256.778 356.182 257.046 355.914C257.314 355.646 257.465 355.283 257.465 354.904V322.992C257.465 322.613 257.314 322.25 257.046 321.982C256.778 321.714 256.414 321.563 256.035 321.563H127.3Z" fill="#E6E6E6"/>
<path d="M167.112 332.277C166.67 332.277 166.245 332.453 165.932 332.765C165.619 333.078 165.444 333.502 165.444 333.945C165.444 334.387 165.619 334.811 165.932 335.124C166.245 335.437 166.67 335.612 167.112 335.612H245.783C246.002 335.621 246.221 335.586 246.426 335.51C246.632 335.434 246.82 335.318 246.981 335.169C247.142 335.021 247.272 334.841 247.363 334.642C247.455 334.443 247.506 334.228 247.515 334.009C247.523 333.791 247.488 333.572 247.412 333.367C247.336 333.161 247.22 332.973 247.071 332.812C246.923 332.651 246.743 332.522 246.544 332.43C246.345 332.339 246.13 332.287 245.911 332.279C245.886 332.278 245.862 332.277 245.837 332.278H167.112L167.112 332.277Z" fill="#E6E6E6"/>
<path d="M167.112 342.283C166.67 342.283 166.245 342.459 165.932 342.772C165.619 343.084 165.444 343.509 165.444 343.951C165.444 344.393 165.619 344.817 165.932 345.13C166.245 345.443 166.67 345.619 167.112 345.619H245.783C246.002 345.627 246.221 345.592 246.426 345.516C246.632 345.44 246.82 345.324 246.981 345.176C247.142 345.027 247.272 344.848 247.363 344.649C247.455 344.45 247.506 344.235 247.515 344.016C247.523 343.797 247.488 343.578 247.412 343.373C247.336 343.168 247.22 342.979 247.071 342.818C246.923 342.658 246.743 342.528 246.544 342.436C246.345 342.345 246.13 342.293 245.911 342.285C245.886 342.284 245.862 342.284 245.837 342.284H167.112L167.112 342.283Z" fill="#E6E6E6"/>
<path d="M374.786 446H-87.7862C-88.457 446 -89 445.707 -89 445.346C-89 444.985 -88.4564 444.692 -87.7862 444.692H374.786C375.456 444.692 376 444.985 376 445.346C376 445.707 375.457 446 374.786 446Z" fill="#E6E6E6"/>
<path d="M143.361 242.205C148.89 242.205 153.373 237.726 153.373 232.2C153.373 226.674 148.89 222.194 143.361 222.194C137.831 222.194 133.348 226.674 133.348 232.2C133.348 237.726 137.831 242.205 143.361 242.205Z" fill="#6C63FF"/>
<path d="M138.567 230.331C138.452 230.331 138.359 231.078 138.359 231.998C138.359 232.919 138.452 233.666 138.567 233.666H148.413C148.528 233.681 148.623 232.947 148.625 232.026C148.689 231.453 148.619 230.873 148.42 230.331H138.567V230.331Z" fill="#E6E6E6"/>
<path d="M143.361 295.59C148.89 295.59 153.373 291.111 153.373 285.585C153.373 280.059 148.89 275.579 143.361 275.579C137.831 275.579 133.348 280.059 133.348 285.585C133.348 291.111 137.831 295.59 143.361 295.59Z" fill="#6C63FF"/>
<path d="M138.567 283.716C138.452 283.716 138.359 284.463 138.359 285.383C138.359 286.304 138.452 287.051 138.567 287.051H148.413C148.528 287.066 148.623 286.332 148.625 285.411C148.689 284.838 148.619 284.258 148.42 283.716H138.567V283.716Z" fill="#E6E6E6"/>
<path d="M143.361 348.953C148.89 348.953 153.373 344.474 153.373 338.948C153.373 333.422 148.89 328.942 143.361 328.942C137.831 328.942 133.348 333.422 133.348 338.948C133.348 344.474 137.831 348.953 143.361 348.953Z" fill="#6C63FF"/>
<path d="M138.567 337.079C138.452 337.079 138.359 337.826 138.359 338.746C138.359 339.667 138.452 340.414 138.567 340.414H148.413C148.528 340.429 148.623 339.695 148.625 338.774C148.689 338.201 148.619 337.621 148.42 337.079H138.567V337.079Z" fill="#E6E6E6"/>
<path d="M177.007 108.664L173.464 112.205L203.137 141.858L206.68 138.317L177.007 108.664Z" fill="white"/>
<path d="M206.68 112.205L203.137 108.664L173.464 138.317L177.007 141.858L206.68 112.205Z" fill="white"/>
</g>
<defs>
<clipPath id="clip0_97:2">
<rect width="376" height="445" fill="white"/>
</clipPath>
</defs>
</svg>
