<svg width="41" height="41" viewBox="0 0 41 41" fill="none" xmlns="http://www.w3.org/2000/svg">
<path d="M20.5 0C9.17888 0 0 9.17888 0 20.5C0 31.8211 9.17888 41 20.5 41C31.8211 41 41 31.8211 41 20.5C40.9863 9.184 31.816 0.0136667 20.5017 0H20.5ZM19.6544 26.802C19.7705 27.1488 18.7575 28.1602 18.6721 28.2183C18.5867 28.2763 16.7075 27.236 16.388 27.0907C15.9427 26.3344 15.5986 25.5229 15.3648 24.6769L15.3477 24.6051L14.6541 23.9406C14.6541 23.9406 13.0653 22.755 12.9201 22.6986C12.7749 22.6423 12.4862 20.4163 12.394 20.213C12.1437 19.8586 11.8473 19.5391 11.5125 19.2632L11.5039 19.2563C11.3373 18.5768 11.2502 17.8803 11.2443 17.1807V17.1756C11.3177 16.4393 11.5552 15.7713 11.919 15.1905L11.9071 15.2093C12.3691 14.4274 12.5024 13.4943 12.2778 12.6143L12.2829 12.6383C12.1087 12.3495 10.976 12.7749 10.976 12.7749C10.6833 12.6135 10.3717 12.489 10.0484 12.4042L10.0194 12.3974L9.43342 11.304C9.43342 11.304 5.94158 11.0546 5.99967 10.9692C9.32579 6.30204 14.7173 3.29538 20.8126 3.29538C21.6207 3.29538 22.4168 3.34833 23.1975 3.45083L23.1052 3.44058H23.2931C23.9184 3.48671 24.4958 3.48671 24.8238 4.06754C24.8887 4.18029 26.0606 5.21042 26.0316 5.21042H22.8302L22.1656 5.78783L25.0869 7.53375C24.6871 7.64308 23.874 7.89592 23.3273 8.07017C22.9572 8.18642 22.6099 8.36557 22.3006 8.59975L22.3091 8.59292L21.1543 9.45904L20.0798 10.9948L21.6446 12.1514C21.6446 12.1514 23.4657 13.5385 23.5579 13.5966C23.6502 13.6547 24.0192 12.4401 24.0192 12.4401C23.977 11.5039 23.9372 10.5666 23.8996 9.62817L24.7657 9.91687L26.0367 9.80071L27.4529 10.894C27.6972 11.2767 27.9398 11.7209 28.1482 12.1855L28.1755 12.2539C28.1585 12.4486 28.0218 13.5095 28.2678 13.5488H28.278C28.3232 13.5485 28.3674 13.5361 28.4062 13.5129H28.4045C28.8435 13.2994 29.2603 13.0517 29.6789 12.804C29.877 12.6861 30.3007 12.3103 30.5416 12.3103C30.4374 12.7373 30.2888 13.1132 30.0957 13.4617L30.1077 13.4378C30.0633 13.5061 28.9802 15.3084 28.5189 16.0737C28.3737 16.3129 28.2131 16.5196 28.0286 16.7041L26.5253 18.2348L27.0463 19.1299L25.789 20.6179C25.684 20.7419 25.5704 20.8583 25.449 20.9664L25.4456 20.9698L24.0977 22.1639C24.0977 22.1639 22.6252 22.5107 22.5363 22.5107C22.4475 22.5107 21.3507 22.7704 21.3507 22.7704C21.3507 22.7704 19.27 22.5688 18.9813 23.6655C18.917 24.7645 19.1519 25.8603 19.6612 26.8362L19.6458 26.802H19.6544ZM35.0055 21.4413C35.2685 21.3832 34.305 22.6713 34.2453 22.8729C33.9297 23.3112 33.5782 23.7226 33.1946 24.1029L31.5546 24.3079C31.6863 23.5662 32.0582 22.8884 32.6129 22.3788C33.1676 21.8692 33.8744 21.556 34.6245 21.4874L34.6382 21.4857C34.8175 21.4686 34.9525 21.4532 35.0037 21.4413H35.0055ZM25.7036 26.5748L24.9365 25.4405C24.875 25.3483 25.2423 24.9502 25.2423 24.9502C25.2423 24.9502 28.155 24.5214 28.4301 24.5505C28.7051 24.5795 29.1647 25.4405 29.1647 25.4405C29.1647 25.4405 28.1533 26.7576 27.8151 26.7576C27.4768 26.7576 25.7002 26.5748 25.7002 26.5748H25.7036ZM26.4792 30.5518C26.4792 30.5518 26.129 30.6988 25.7788 30.873C25.4285 31.0473 24.9895 31.1942 24.9314 31.078C24.7016 30.8357 24.4422 30.6234 24.1593 30.4459L24.1422 30.4357C23.7177 30.128 23.2653 29.8609 22.7909 29.6379L22.7396 29.6157C22.288 29.3834 21.8914 29.0572 21.5763 28.659L21.5711 28.6522C21.496 28.483 21.8633 27.9808 21.9213 27.7177C21.9794 27.4546 21.8923 26.6705 22.0683 26.761C22.2442 26.8516 22.6235 26.6244 23.0027 26.761C23.4298 26.896 23.7937 27.1266 24.0824 27.429L24.0841 27.4307C24.26 27.8134 24.506 28.1345 24.8101 28.3908L24.8135 28.3942C25.1347 28.5992 25.719 28.8315 25.6899 29.2142C25.6609 29.5969 26.129 30.0906 26.129 30.0906L26.4792 30.5518ZM27.0497 36.0185C25.4593 35.313 25.0613 34.5152 25.1825 34.3631C25.695 33.9087 26.1648 33.4492 26.6107 32.9657L26.6227 32.952C26.9285 32.5233 28.524 30.7141 28.524 30.7141L28.0338 29.7335L29.4004 28.9238C29.8053 28.6812 30.2819 28.5172 30.7944 28.466L30.8081 28.4643L32.1406 28.3344C32.2203 28.3264 32.2995 28.3213 32.378 28.319L34.5271 28.261C34.5271 28.261 36.4798 27.7553 36.1825 28.2917C31.7101 36.3721 27.0497 36.0151 27.0497 36.0151V36.0185Z" fill="#004583"/>
</svg>
