<svg width="55" height="55" viewBox="0 0 55 55" fill="none" xmlns="http://www.w3.org/2000/svg">
<path d="M27.5 4.58331C27.5 4.58331 16.0416 9.16665 16.0416 27.5C16.0416 34.6041 17.7833 40.6771 19.8687 45.4437C20.2352 46.2472 20.8259 46.9276 21.5699 47.4033C22.3139 47.8789 23.1794 48.1295 24.0625 48.125H30.9375C31.8205 48.1295 32.686 47.8789 33.43 47.4033C34.174 46.9276 34.7648 46.2472 35.1312 45.4437C37.2395 40.6771 38.9583 34.6041 38.9583 27.5C38.9583 9.16665 27.5 4.58331 27.5 4.58331ZM30.9375 43.5416H24.0625C21.7708 38.4083 20.625 33.0229 20.625 27.5C20.625 16.8666 24.9791 11.9166 27.5 9.9229C30.0208 11.9166 34.375 16.8666 34.375 27.5C34.375 33.0229 33.2291 38.4083 30.9375 43.5416ZM45.8333 50.4166L36.9875 46.8646C38.5916 43.3583 39.7375 39.7375 40.4479 36.0479L45.8333 50.4166ZM18.0125 46.8646L9.16663 50.4166L14.552 36.0479C15.2625 39.7375 16.4083 43.3583 18.0125 46.8646ZM27.5 27.5C24.9791 27.5 22.9166 25.4375 22.9166 22.9166C22.9166 20.3958 24.9791 18.3333 27.5 18.3333C30.0208 18.3333 32.0833 20.3958 32.0833 22.9166C32.0833 25.4375 30.0208 27.5 27.5 27.5Z" fill="#004583"/>
</svg>
