<svg width="49" height="49" viewBox="0 0 49 49" fill="none" xmlns="http://www.w3.org/2000/svg">
<path d="M18.375 32.6666C21.9745 32.6666 25.2555 31.3191 27.7728 29.1162L30.5025 34.8329C30.5025 34.8329 31.064 35.2902 31.8358 36.0497C32.6259 36.7908 33.6651 37.7933 34.6614 38.8406L37.434 41.6826L38.6672 43.0016L42.9975 38.6712L41.6786 37.438L38.8366 34.6654C37.8804 33.7495 36.9497 32.8072 36.0457 31.8398C35.2862 31.068 34.8288 30.5066 34.8288 30.5066L29.1122 27.7769C31.4017 25.1799 32.6655 21.8371 32.6667 18.375C32.6667 10.4962 26.2538 4.08331 18.375 4.08331C10.4962 4.08331 4.08337 10.4962 4.08337 18.375C4.08337 26.2538 10.4962 32.6666 18.375 32.6666Z" fill="#004583"/>
</svg>
