<svg width="43" height="43" viewBox="0 0 43 43" fill="none" xmlns="http://www.w3.org/2000/svg">
<path d="M21.6118 4.9321C22.3428 2.83155 25.1206 1.86405 26.8363 3.6636C27.1889 4.0291 27.5372 4.4247 27.7737 4.77945C28.4617 5.81145 28.752 7.1724 28.8573 8.49895C28.9648 9.847 28.8917 11.2961 28.7541 12.6098C28.6144 13.9256 28.408 15.1339 28.236 16.0132L28.2145 16.125H30.1129C31.0578 16.1249 31.9912 16.3323 32.847 16.7327C33.7029 17.1331 34.4604 17.7167 35.0658 18.4421C35.6713 19.1675 36.1099 20.0171 36.3508 20.9308C36.5917 21.8445 36.6288 22.7999 36.4597 23.7296L34.9891 31.8157C34.7494 33.1352 34.238 34.3905 33.4873 35.5018C32.7366 36.6132 31.7631 37.5563 30.6285 38.2714C29.494 38.9865 28.2231 39.4579 26.8967 39.6556C25.5702 39.8534 24.2171 39.7733 22.9233 39.4202L10.8833 36.1372C9.92043 35.8743 9.04979 35.3484 8.36892 34.6186C7.68806 33.8887 7.22386 32.9837 7.02835 32.0049L6.2694 28.2102C5.6717 25.2238 7.955 22.7083 10.3824 21.7494C11.0404 21.5047 11.6514 21.1483 12.1884 20.6959C15.8584 17.4408 17.1871 14.8415 19.4661 10.2684C20.2272 8.7419 21.0098 6.665 21.6118 4.9321ZM25.8366 16.9399V16.9356L25.8409 16.9205L25.8559 16.8539C25.9553 16.4373 26.0456 16.0187 26.1268 15.5983C26.2902 14.7641 26.4859 13.6203 26.6149 12.384C26.746 11.1435 26.8084 9.8384 26.7138 8.6688C26.6192 7.4734 26.3698 6.55105 25.9828 5.97055C25.7707 5.67842 25.5364 5.40312 25.2819 5.1471C24.854 4.6999 23.9317 4.8031 23.6436 5.6373C23.0351 7.3874 22.216 9.5718 21.3904 11.2273C19.0963 15.8305 17.615 18.7566 13.616 22.3041C12.885 22.9534 12.0164 23.4157 11.1736 23.7489C9.28155 24.4971 8.0625 26.2171 8.37855 27.7888L9.13535 31.5835C9.25294 32.171 9.53187 32.7142 9.94087 33.152C10.3499 33.5899 10.8728 33.9051 11.4509 34.0625L23.4909 37.3455C24.4969 37.6198 25.549 37.6819 26.5803 37.5281C27.6117 37.3743 28.5998 37.0078 29.482 36.4519C30.3642 35.8959 31.1212 35.1627 31.705 34.2988C32.2889 33.4348 32.6868 32.4589 32.8735 31.433L34.3441 23.3447C34.4569 22.7249 34.4321 22.088 34.2715 21.4789C34.1109 20.8698 33.8185 20.3034 33.4148 19.8197C33.0112 19.3361 32.5062 18.9471 31.9357 18.6801C31.3651 18.4132 30.7428 18.2749 30.1129 18.275H26.8772C26.714 18.2746 26.5532 18.2372 26.4067 18.1654C26.2602 18.0936 26.132 17.9895 26.0317 17.8608C25.9314 17.7322 25.8618 17.5824 25.828 17.4228C25.7941 17.2633 25.7971 17.0981 25.8366 16.9399Z" fill="black"/>
</svg>
