<svg width="43" height="43" viewBox="0 0 43 43" fill="none" xmlns="http://www.w3.org/2000/svg">
<path d="M28.4257 26.875C28.4714 27.2324 28.5171 27.6409 28.5601 28.0844C28.7589 30.0731 28.9148 32.9031 28.5251 35.2815C28.3316 36.4613 27.9876 37.6626 27.3372 38.6032C26.6492 39.603 25.6011 40.3125 24.1875 40.3125C22.7981 40.3125 21.9542 39.3181 21.4355 38.4554C20.9168 37.5954 20.4653 36.4237 20.0004 35.2304L19.9654 35.1364C18.4954 31.347 16.4878 26.2219 11.0806 22.618C10.3573 22.1341 9.58867 21.7218 8.78543 21.3871C6.91493 20.6131 5.23256 18.5464 5.67599 16.1841L6.27799 12.9726C6.46239 11.9843 6.92027 11.0675 7.59961 10.3264C8.27896 9.58525 9.15255 9.04953 10.1211 8.78006L23.4242 5.08743C24.6797 4.7386 25.994 4.65441 27.2837 4.84022C28.5734 5.02602 29.8104 5.47776 30.9164 6.1668C32.0223 6.85584 32.9731 7.76714 33.7083 8.84294C34.4435 9.91873 34.9472 11.1355 35.1874 12.4162L36.4076 18.92C36.5892 19.8901 36.5548 20.8884 36.3069 21.8437C36.059 22.7991 35.6037 23.6881 34.9733 24.4475C34.3429 25.207 33.5529 25.8182 32.6596 26.2377C31.7662 26.6573 30.7914 26.8749 29.8044 26.875H28.4257ZM32.5483 12.9107C32.3768 11.9958 32.017 11.1264 31.4918 10.3578C30.9665 9.5892 30.2873 8.93814 29.4971 8.44591C28.707 7.95368 27.8232 7.63102 26.9018 7.4984C25.9803 7.36578 25.0414 7.42608 24.1445 7.6755L10.8414 11.3708C10.3571 11.5055 9.92029 11.7734 9.58062 12.144C9.24094 12.5145 9.012 12.9729 8.91981 13.4671L8.31781 16.6786C8.17537 17.4419 8.75049 18.4631 9.81474 18.9066C10.6479 19.2506 11.5885 19.7262 12.5694 20.382C18.7157 24.4804 20.9786 30.315 22.4487 34.1097L22.4702 34.1635C22.9808 35.4804 23.3571 36.4317 23.7387 37.0714C23.9268 37.3804 24.0612 37.5282 24.1472 37.5954C24.1607 37.6056 24.1751 37.6146 24.1902 37.6223C24.5718 37.6223 24.8486 37.4799 25.1254 37.0767C25.4452 36.6145 25.7059 35.8647 25.8726 34.8461C26.2031 32.8305 26.0795 30.2854 25.8887 28.3504C25.8078 27.5451 25.7048 26.7421 25.5796 25.9424L25.5581 25.8054L25.5527 25.7704V25.7624C25.5191 25.5694 25.528 25.3714 25.5788 25.1822C25.6297 24.993 25.7214 24.8172 25.8473 24.6672C25.9733 24.5172 26.1306 24.3965 26.3081 24.3136C26.4856 24.2308 26.6791 24.1877 26.875 24.1875H29.8044C30.3968 24.1874 30.9819 24.0568 31.5181 23.8048C32.0543 23.5529 32.5284 23.1859 32.9066 22.7299C33.2848 22.274 33.5579 21.7402 33.7064 21.1667C33.8549 20.5932 33.8751 19.994 33.7657 19.4118L32.5483 12.9107Z" fill="black"/>
</svg>
